<svg width="145" height="105" viewBox="0 0 145 105" fill="none" xmlns="http://www.w3.org/2000/svg">
<path d="M0 103.59H11.8957V60.8547H0V103.59Z" fill="#E6E6E6"/>
<path d="M19.7444 103.59H31.6402V91.3798H37.588C48.1961 91.3798 55.9835 86.0684 55.9835 75.9341V75.812C55.9835 66.3492 48.9932 60.8547 38.2012 60.8547H19.7444V103.59ZM31.6402 82.1002V70.8059H37.2814C41.5124 70.8059 44.1491 72.6984 44.1491 76.3615V76.4835C44.1491 79.9023 41.5124 82.1002 37.3428 82.1002H31.6402Z" fill="#E6E6E6"/>
<path d="M74.3789 103.895H85.4162L102.831 60.8547H89.8311L80.0202 87.8999L70.2706 60.8547H57.0259L74.3789 103.895Z" fill="#E6E6E6"/>
<path d="M124.966 104.444C134.409 104.444 139.805 100.354 143.914 94.7985L134.961 88.4493C132.325 91.5629 129.749 93.6386 125.273 93.6386C119.264 93.6386 115.033 88.6325 115.033 82.2222V82.1001C115.033 75.873 119.264 70.7448 125.273 70.7448C129.443 70.7448 132.202 72.7595 134.655 75.7509L143.607 68.8523C139.867 63.663 134.103 60 125.396 60C112.396 60 102.831 69.768 102.831 82.2222V82.3443C102.831 95.1038 112.703 104.444 124.966 104.444Z" fill="#E6E6E6"/>
<path d="M94.4128 5.42124L99.8578 0L121.638 21.685L99.858 43.3698L94.4129 37.9486L110.748 21.685L94.4128 5.42124Z" fill="#E6E6E6"/>
<path d="M116.733 5.42124L122.178 0L143.958 21.685L122.178 43.3698L116.733 37.9486L133.068 21.685L116.733 5.42124Z" fill="#E6E6E6"/>
<path d="M22.7361 43.3671C30.4544 43.3671 36.4376 40.6269 40.9249 36.8739V18.1689H21.719V26.6279H29.9159V31.6913C28.2406 32.8232 26.0867 33.4189 23.2147 33.4189C16.5734 33.4189 11.8467 28.5937 11.8467 21.8027V21.6835C11.8467 15.3095 16.5734 10.3056 22.5566 10.3056C26.8046 10.3056 29.6167 11.6758 32.6681 14.2373L39.489 6.01659C35.0016 2.2041 29.9159 0 22.4968 0C9.5731 0 0 9.53123 0 21.6835V21.8027C0 34.4911 9.63291 43.3671 22.7361 43.3671Z" fill="#E6E6E6"/>
<path d="M68.5074 43.3669C81.431 43.3669 91.1238 33.657 91.1238 21.6834V21.5642C91.1238 9.6502 81.5507 -0.000164032 68.627 -0.000164032C55.7034 -0.000164032 46.0106 9.70978 46.0106 21.6834V21.8025C46.0106 33.7165 55.5837 43.3669 68.5074 43.3669ZM68.627 32.9421C62.2249 32.9421 57.8573 27.6404 57.8573 21.6834V21.5642C57.8573 15.5477 62.1053 10.4246 68.5073 10.4246C74.9093 10.4246 79.2172 15.6072 79.2172 21.6834V21.8025C79.2172 27.8191 74.9691 32.9421 68.627 32.9421Z" fill="#E6E6E6"/>
<rect y="48.9999" width="20.66" height="5.55555" rx="2" fill="#0054A4"/>
<rect x="24.76" y="48.9999" width="20.66" height="5.55555" rx="2" fill="#F3AB1D"/>
<rect x="49.52" y="48.9999" width="20.66" height="5.55555" rx="2" fill="#00A885"/>
<rect x="74.28" y="48.9999" width="20.66" height="5.55555" rx="2" fill="#E51A2C"/>
<rect x="99.04" y="48.9999" width="20.66" height="5.55555" rx="2" fill="#DCA7AC"/>
<rect x="123.8" y="48.9999" width="20.66" height="5.55555" rx="2" fill="#828181"/>
</svg>
