<svg width="225" height="54" viewBox="0 0 225 54" fill="none" xmlns="http://www.w3.org/2000/svg">
<path d="M21.1495 33.3519C21.1495 29.5878 19.8132 26.6698 17.9829 24.4814H8.86073V33.8479H12.9861V29.8504H15.4554C16.0074 30.6674 16.2979 31.7178 16.2979 33.1184C16.2979 36.3573 13.9448 38.6625 10.6329 38.6625H10.5748C7.46626 38.6625 5.02592 36.3573 5.02592 33.4394C5.02592 31.3677 5.69411 29.9963 6.94333 28.5081L2.93421 25.1817C1.07491 27.3701 0 29.8504 0 33.4686C0 39.7713 4.64825 44.44 10.5748 44.44H10.6329C16.8209 44.44 21.1495 39.7421 21.1495 33.3519Z" fill="#E6E6E6"/>
<path d="M21.1495 11.0298C21.1495 4.72704 16.4141 1.43759e-06 10.5747 1.43759e-06H10.5166C4.70629 1.43759e-06 -6.48499e-05 4.66869 -6.48499e-05 10.9714C-6.48499e-05 17.2741 4.73534 22.0012 10.5747 22.0012H10.6328C16.4431 22.0012 21.1495 17.3325 21.1495 11.0298ZM16.0655 10.9714C16.0655 14.0936 13.4799 16.2237 10.5747 16.2237H10.5166C7.5824 16.2237 5.08396 14.152 5.08396 11.0298C5.08396 7.90762 7.61145 5.8067 10.5747 5.8067H10.6328C13.567 5.8067 16.0655 7.87844 16.0655 10.9714Z" fill="#E6E6E6"/>
<rect y="48" width="32.1784" height="5.56" rx="2" fill="#0054A4"/>
<rect x="38.5643" y="48" width="32.1784" height="5.56" rx="2" fill="#F3AB1D"/>
<rect x="77.1286" y="48" width="32.1784" height="5.56" rx="2" fill="#00A885"/>
<rect x="115.693" y="48" width="32.1784" height="5.56" rx="2" fill="#E51A2C"/>
<rect x="154.257" y="48" width="32.1784" height="5.56" rx="2" fill="#DCA7AC"/>
<rect x="192.822" y="48" width="32.1784" height="5.56" rx="2" fill="#828181"/>
<path d="M175 5.42124L180.445 0L202.225 21.685L180.445 43.3698L175 37.9486L191.335 21.685L175 5.42124Z" fill="#E6E6E6"/>
<path d="M197.32 5.42124L202.765 0L224.545 21.685L202.765 43.3698L197.32 37.9486L213.655 21.685L197.32 5.42124Z" fill="#E6E6E6"/>
<path d="M26 43.5898H37.8957V0.854736H26V43.5898Z" fill="#E6E6E6"/>
<path d="M45.7444 43.5898H57.6402V31.3798H63.588C74.1961 31.3798 81.9835 26.0684 81.9835 15.9341V15.812C81.9835 6.34924 74.9932 0.854736 64.2012 0.854736H45.7444V43.5898ZM57.6402 22.1002V10.8059H63.2814C67.5124 10.8059 70.1491 12.6984 70.1491 16.3615V16.4835C70.1491 19.9023 67.5124 22.1002 63.3428 22.1002H57.6402Z" fill="#E6E6E6"/>
<path d="M100.379 43.895H111.416L128.831 0.854736H115.831L106.02 27.8999L96.2706 0.854736H83.0259L100.379 43.895Z" fill="#E6E6E6"/>
<path d="M150.966 44.4444C160.409 44.4444 165.805 40.3541 169.914 34.7985L160.961 28.4493C158.325 31.5629 155.749 33.6386 151.273 33.6386C145.264 33.6386 141.033 28.6325 141.033 22.2222V22.1001C141.033 15.873 145.264 10.7448 151.273 10.7448C155.443 10.7448 158.202 12.7595 160.655 15.7509L169.607 8.85226C165.867 3.66301 160.103 0 151.396 0C138.396 0 128.831 9.76802 128.831 22.2222V22.3443C128.831 35.1038 138.703 44.4444 150.966 44.4444Z" fill="#E6E6E6"/>
</svg>
